<svg id="_0" data-name="0" xmlns="http://www.w3.org/2000/svg" viewBox="0 0 752.5 374.11"><defs><style>.cls-1,.cls-3{fill:#4670b7;}.cls-1{stroke:#4670b7;stroke-linecap:round;stroke-linejoin:round;stroke-width:20px;}.cls-2{font-size:175px;fill:#fff;font-family:Tahoma;letter-spacing:0.01em;}</style></defs><path class="cls-1" d="M600,1341.7v156.6a20,20,0,0,0,10.19,17.43l140,78.75a20,20,0,0,0,19.62,0l140-78.75A20,20,0,0,0,920,1498.3V1341.7a20,20,0,0,0-10.19-17.43l-140-78.75a20,20,0,0,0-19.62,0l-140,78.75A20,20,0,0,0,600,1341.7Z" transform="translate(-590 -1232.95)"/><text class="cls-2" transform="translate(30 252.05)">dev<tspan class="cls-3" x="281.25" y="0">mune</tspan></text></svg>